<svg xmlns="http://www.w3.org/2000/svg" xmlns:xlink="http://www.w3.org/1999/xlink" width="300" zoomAndPan="magnify" viewBox="0 0 224.87999 74.999997" height="100" preserveAspectRatio="xMidYMid meet" version="1.0"><defs><g/><clipPath id="4087a0c0c1"><path d="M 0 0.0195312 L 224.761719 0.0195312 L 224.761719 74.980469 L 0 74.980469 Z M 0 0.0195312 " clip-rule="nonzero"/></clipPath><clipPath id="44aca6b0b4"><path d="M 67.898438 29.019531 L 90.65625 29.019531 L 90.65625 48.578125 L 67.898438 48.578125 Z M 67.898438 29.019531 " clip-rule="nonzero"/></clipPath><clipPath id="60a55250ec"><path d="M 67.898438 39.191406 L 90.65625 39.191406 L 90.65625 48.433594 L 67.898438 48.433594 Z M 67.898438 39.191406 " clip-rule="nonzero"/></clipPath><clipPath id="05e24ea86a"><path d="M 175 33 L 190 33 L 190 50.347656 L 175 50.347656 Z M 175 33 " clip-rule="nonzero"/></clipPath><clipPath id="b7eb2e794f"><path d="M 180 23.769531 L 186 23.769531 L 186 29 L 180 29 Z M 180 23.769531 " clip-rule="nonzero"/></clipPath><clipPath id="0d521ba496"><path d="M 181 27.988281 L 185.542969 27.988281 L 185.542969 33 L 181 33 Z M 181 27.988281 " clip-rule="nonzero"/></clipPath><clipPath id="71296eb83c"><path d="M 175 29 L 184 29 L 184 39.035156 L 175 39.035156 Z M 175 29 " clip-rule="nonzero"/></clipPath><clipPath id="9a6591a760"><path d="M 186 36 L 189 36 L 189 43 L 186 43 Z M 186 36 " clip-rule="nonzero"/></clipPath><clipPath id="dbcf71645d"><path d="M 190.171875 31.105469 L 194.21875 41.382812 L 183.296875 45.683594 L 179.25 35.40625 Z M 190.171875 31.105469 " clip-rule="nonzero"/></clipPath><clipPath id="38f3103c90"><path d="M 194.265625 41.507812 L 190.21875 31.230469 L 179.300781 35.53125 L 183.347656 45.808594 Z M 194.265625 41.507812 " clip-rule="nonzero"/></clipPath><clipPath id="4d20e91fd1"><path d="M 186 32 L 192 32 L 192 37 L 186 37 Z M 186 32 " clip-rule="nonzero"/></clipPath><clipPath id="b551c0cd59"><path d="M 190.171875 31.105469 L 194.21875 41.382812 L 183.296875 45.683594 L 179.25 35.40625 Z M 190.171875 31.105469 " clip-rule="nonzero"/></clipPath><clipPath id="d8e46b4604"><path d="M 194.265625 41.507812 L 190.21875 31.230469 L 179.300781 35.53125 L 183.347656 45.808594 Z M 194.265625 41.507812 " clip-rule="nonzero"/></clipPath><clipPath id="24cf87a485"><path d="M 183 33 L 190 33 L 190 46 L 183 46 Z M 183 33 " clip-rule="nonzero"/></clipPath><clipPath id="549974bcf7"><path d="M 190.171875 31.105469 L 194.21875 41.382812 L 183.296875 45.683594 L 179.25 35.40625 Z M 190.171875 31.105469 " clip-rule="nonzero"/></clipPath><clipPath id="7e1e6d681d"><path d="M 194.265625 41.507812 L 190.21875 31.230469 L 179.300781 35.53125 L 183.347656 45.808594 Z M 194.265625 41.507812 " clip-rule="nonzero"/></clipPath><clipPath id="e8e845372b"><path d="M 177.25 23.414062 L 186.433594 23.414062 L 186.433594 29.359375 L 177.25 29.359375 Z M 177.25 23.414062 " clip-rule="nonzero"/></clipPath><clipPath id="b42978f14e"><path d="M 181.367188 24.824219 C 178.542969 24.152344 178.488281 24.066406 178.488281 23.957031 C 178.488281 23.871094 178.574219 23.761719 178.738281 23.703125 C 179.328125 23.425781 183.128906 23.566406 183.828125 23.898438 C 184.054688 24.011719 184.25 24.179688 184.191406 24.320312 C 184.054688 24.710938 178.878906 25.101562 178.179688 24.878906 C 178.011719 24.824219 177.902344 24.710938 177.902344 24.628906 C 177.902344 24.542969 177.957031 24.402344 178.097656 24.320312 C 178.628906 24.039062 181.089844 24.402344 182.402344 24.292969 C 183.578125 24.207031 185.226562 23.59375 185.675781 23.816406 C 185.84375 23.898438 185.953125 24.097656 185.898438 24.207031 C 185.703125 24.597656 182.039062 24.90625 180.753906 25.046875 C 179.96875 25.101562 179.1875 25.242188 178.878906 25.074219 C 178.738281 25.019531 178.65625 24.878906 178.65625 24.796875 C 178.65625 24.710938 178.738281 24.628906 178.878906 24.542969 C 179.328125 24.265625 181.398438 23.957031 182.570312 23.816406 C 183.605469 23.703125 185.144531 23.480469 185.507812 23.761719 C 185.675781 23.84375 185.757812 24.039062 185.675781 24.179688 C 185.367188 24.765625 178.574219 26.082031 177.761719 25.859375 C 177.59375 25.828125 177.507812 25.691406 177.507812 25.605469 C 177.480469 25.523438 177.566406 25.410156 177.734375 25.296875 C 178.40625 24.933594 183.128906 24.964844 184.304688 24.933594 C 184.722656 24.933594 185.058594 24.824219 185.171875 24.933594 C 185.253906 25.046875 185.285156 25.328125 185.144531 25.464844 C 184.554688 25.996094 178.347656 26.082031 177.59375 25.632812 C 177.398438 25.523438 177.285156 25.328125 177.34375 25.1875 C 177.648438 24.597656 184.753906 23.203125 185.757812 23.453125 C 186.011719 23.507812 186.179688 23.675781 186.179688 23.789062 C 186.179688 23.984375 185.589844 24.265625 185.199219 24.433594 C 184.667969 24.65625 183.96875 24.765625 183.214844 24.878906 C 182.179688 25.046875 180.027344 25.382812 179.523438 25.160156 C 179.355469 25.074219 179.214844 24.878906 179.242188 24.765625 C 179.4375 24.402344 184.976562 24.320312 185.703125 24.597656 C 185.871094 24.65625 185.953125 24.738281 185.984375 24.824219 C 185.984375 24.933594 185.925781 25.046875 185.757812 25.128906 C 185.089844 25.496094 180.640625 25.074219 179.1875 25.214844 C 178.433594 25.269531 177.789062 25.660156 177.507812 25.496094 C 177.34375 25.410156 177.203125 25.160156 177.285156 25.019531 C 177.59375 24.570312 183.632812 24.65625 184.136719 25.101562 C 184.277344 25.214844 184.25 25.410156 184.191406 25.523438 C 184.109375 25.660156 183.886719 25.660156 183.578125 25.746094 C 182.824219 25.96875 179.886719 26.78125 179.382812 26.527344 C 179.242188 26.445312 179.160156 26.222656 179.1875 26.109375 C 179.242188 25.96875 179.550781 25.914062 179.886719 25.859375 C 180.699219 25.691406 183.941406 25.355469 184.25 25.71875 C 184.332031 25.828125 184.304688 26.082031 184.136719 26.222656 C 183.578125 26.695312 178.488281 26.558594 177.761719 26.304688 C 177.566406 26.222656 177.480469 26.136719 177.453125 26.054688 C 177.453125 25.96875 177.539062 25.828125 177.734375 25.746094 C 178.542969 25.355469 185.144531 25.269531 185.589844 25.773438 C 185.703125 25.886719 185.648438 26.109375 185.5625 26.222656 C 185.339844 26.472656 184.5 26.640625 183.914062 26.667969 C 183.242188 26.726562 182.261719 26.082031 181.84375 26.359375 C 181.398438 26.667969 181.535156 28.121094 181.3125 28.402344 C 181.199219 28.542969 181.0625 28.597656 180.976562 28.570312 C 180.867188 28.542969 180.78125 28.261719 180.808594 28.011719 C 180.808594 27.453125 181.425781 25.550781 181.761719 25.410156 C 181.871094 25.382812 182.066406 25.496094 182.125 25.632812 C 182.207031 25.800781 182.066406 26.164062 181.984375 26.472656 C 181.898438 26.808594 181.84375 27.226562 181.648438 27.535156 C 181.453125 27.816406 181.03125 28.234375 180.835938 28.234375 C 180.726562 28.207031 180.585938 28.066406 180.585938 27.957031 C 180.558594 27.789062 180.699219 27.507812 180.894531 27.285156 C 181.199219 26.890625 182.179688 25.96875 182.542969 25.941406 C 182.710938 25.941406 182.90625 26.082031 182.933594 26.195312 C 182.960938 26.304688 182.792969 26.527344 182.597656 26.726562 C 182.207031 27.058594 180.78125 27.757812 180.417969 27.675781 C 180.277344 27.648438 180.195312 27.507812 180.195312 27.394531 C 180.195312 27.3125 180.25 27.226562 180.363281 27.144531 C 180.835938 26.835938 183.550781 26.613281 184.554688 26.304688 C 185.144531 26.136719 185.621094 25.691406 185.898438 25.746094 C 186.066406 25.773438 186.261719 25.941406 186.234375 26.054688 C 186.207031 26.25 184.695312 26.136719 184.332031 26.5 C 183.96875 26.835938 184.082031 28.011719 183.914062 28.039062 C 183.800781 28.066406 183.550781 27.816406 183.523438 27.675781 C 183.492188 27.535156 183.550781 27.394531 183.660156 27.226562 C 183.886719 26.921875 184.667969 26.136719 185.003906 26.109375 C 185.171875 26.109375 185.421875 26.25 185.421875 26.359375 C 185.421875 26.527344 184.808594 26.726562 184.667969 26.976562 C 184.5 27.226562 184.667969 27.757812 184.527344 27.871094 C 184.445312 27.957031 184.191406 27.957031 184.109375 27.871094 C 183.96875 27.730469 184.054688 27.117188 184.136719 26.726562 C 184.25 26.304688 184.5 25.578125 184.722656 25.4375 C 184.835938 25.355469 185.003906 25.382812 185.089844 25.4375 C 185.199219 25.496094 185.226562 25.632812 185.226562 25.800781 C 185.253906 26.136719 185.03125 27.03125 184.808594 27.394531 C 184.640625 27.621094 184.445312 27.84375 184.222656 27.898438 C 184.023438 27.957031 183.71875 27.957031 183.550781 27.816406 C 183.355469 27.648438 183.160156 27.144531 183.1875 26.863281 C 183.242188 26.558594 183.578125 26.164062 183.800781 26.027344 C 184.023438 25.941406 184.332031 25.914062 184.5 26.027344 C 184.667969 26.136719 184.808594 26.417969 184.835938 26.640625 C 184.890625 26.921875 184.890625 27.394531 184.722656 27.5625 C 184.585938 27.675781 184.164062 27.730469 184.023438 27.589844 C 183.828125 27.421875 183.800781 26.472656 183.941406 26.304688 C 184.023438 26.222656 184.25 26.222656 184.359375 26.277344 C 184.585938 26.390625 184.949219 26.976562 184.921875 27.226562 C 184.890625 27.394531 184.554688 27.648438 184.417969 27.621094 C 184.277344 27.621094 184.136719 27.453125 184.082031 27.3125 C 183.996094 27.144531 183.96875 26.695312 184.082031 26.585938 C 184.164062 26.5 184.445312 26.527344 184.554688 26.613281 C 184.722656 26.78125 184.835938 27.367188 184.808594 27.589844 C 184.808594 27.703125 184.753906 27.84375 184.695312 27.871094 C 184.613281 27.925781 184.417969 27.925781 184.332031 27.816406 C 184.054688 27.589844 183.605469 25.859375 183.773438 25.691406 C 183.859375 25.605469 184.164062 25.660156 184.277344 25.773438 C 184.5 26.054688 184.332031 27.421875 184.25 27.957031 C 184.191406 28.289062 184.136719 28.625 183.996094 28.738281 C 183.914062 28.792969 183.71875 28.820312 183.605469 28.738281 C 183.464844 28.652344 183.355469 28.289062 183.269531 28.011719 C 183.214844 27.703125 183.160156 27.226562 183.242188 27.003906 C 183.328125 26.835938 183.492188 26.667969 183.605469 26.667969 C 183.746094 26.695312 183.859375 26.835938 183.941406 27.003906 C 184.136719 27.3125 184.304688 28.402344 184.222656 28.738281 C 184.191406 28.878906 184.109375 29.019531 184.023438 29.046875 C 183.914062 29.046875 183.746094 28.933594 183.660156 28.792969 C 183.550781 28.515625 183.660156 27.453125 183.800781 27.199219 C 183.886719 27.089844 183.96875 27.03125 184.082031 27.058594 C 184.222656 27.058594 184.5 27.394531 184.585938 27.621094 C 184.695312 27.871094 184.722656 28.261719 184.667969 28.488281 C 184.613281 28.652344 184.472656 28.878906 184.332031 28.90625 C 184.222656 28.933594 183.996094 28.820312 183.914062 28.710938 C 183.828125 28.488281 183.914062 27.898438 184.136719 27.5625 C 184.445312 27.089844 185.898438 26.640625 185.84375 26.390625 C 185.816406 26.164062 184.585938 26.027344 183.886719 26.082031 C 183.019531 26.164062 181.398438 26.5 181.003906 27.089844 C 180.667969 27.5625 181.257812 28.683594 181.144531 29.019531 C 181.089844 29.15625 180.976562 29.269531 180.894531 29.296875 C 180.808594 29.296875 180.613281 29.1875 180.585938 29.074219 C 180.558594 28.988281 180.613281 28.878906 180.667969 28.710938 C 180.835938 28.261719 181.425781 26.585938 181.761719 26.472656 C 181.898438 26.417969 182.097656 26.527344 182.179688 26.695312 C 182.347656 26.976562 182.292969 27.925781 182.125 28.375 C 181.984375 28.765625 181.59375 29.382812 181.425781 29.351562 C 181.285156 29.324219 181.117188 28.878906 181.117188 28.542969 C 181.089844 27.984375 181.453125 26.472656 181.789062 26.195312 C 181.957031 26.082031 182.234375 26.082031 182.347656 26.164062 C 182.429688 26.222656 182.460938 26.390625 182.460938 26.558594 C 182.488281 26.835938 182.429688 27.367188 182.261719 27.621094 C 182.152344 27.789062 181.871094 27.957031 181.761719 27.925781 C 181.675781 27.925781 181.59375 27.757812 181.59375 27.621094 C 181.59375 27.394531 181.761719 27.003906 181.957031 26.808594 C 182.125 26.613281 182.402344 26.472656 182.597656 26.445312 C 182.738281 26.445312 182.960938 26.5 182.992188 26.613281 C 183.074219 26.78125 182.90625 27.226562 182.683594 27.480469 C 182.402344 27.789062 181.621094 27.84375 181.257812 28.179688 C 180.921875 28.457031 180.753906 29.296875 180.558594 29.324219 C 180.445312 29.351562 180.335938 29.242188 180.25 29.101562 C 180.082031 28.765625 179.96875 27.199219 180.167969 27.03125 C 180.25 26.949219 180.53125 27.03125 180.585938 27.117188 C 180.613281 27.199219 180.558594 27.480469 180.472656 27.507812 C 180.390625 27.535156 180.054688 27.367188 180.054688 27.3125 C 180.054688 27.226562 180.417969 27.03125 180.558594 27.089844 C 180.726562 27.171875 180.78125 27.789062 180.835938 28.152344 C 180.867188 28.488281 180.894531 29.019531 180.78125 29.1875 C 180.699219 29.296875 180.5 29.351562 180.417969 29.296875 C 180.335938 29.269531 180.277344 29.128906 180.25 28.960938 C 180.25 28.710938 180.445312 28.152344 180.726562 27.871094 C 181.003906 27.5625 181.648438 27.589844 181.984375 27.339844 C 182.292969 27.089844 182.542969 26.472656 182.738281 26.445312 C 182.851562 26.445312 183.019531 26.613281 183.019531 26.753906 C 183.019531 27.03125 181.984375 27.984375 181.761719 27.925781 C 181.675781 27.925781 181.621094 27.757812 181.59375 27.621094 C 181.566406 27.339844 181.730469 26.585938 181.929688 26.472656 C 182.011719 26.390625 182.179688 26.390625 182.234375 26.472656 C 182.402344 26.695312 181.898438 28.683594 181.648438 28.851562 C 181.566406 28.90625 181.425781 28.851562 181.339844 28.765625 C 181.171875 28.515625 181.425781 26.835938 181.675781 26.558594 C 181.761719 26.445312 181.957031 26.445312 182.011719 26.472656 C 182.097656 26.527344 182.152344 26.667969 182.152344 26.835938 C 182.125 27.285156 181.144531 29.269531 180.835938 29.296875 C 180.667969 29.296875 180.5 28.933594 180.417969 28.652344 C 180.304688 28.234375 180.25 27.226562 180.390625 26.921875 C 180.445312 26.753906 180.5 26.726562 180.667969 26.640625 C 181.171875 26.332031 183.296875 25.523438 184.277344 25.496094 C 184.976562 25.464844 185.675781 25.660156 186.039062 25.914062 C 186.261719 26.082031 186.429688 26.359375 186.402344 26.585938 C 186.402344 26.78125 186.207031 26.976562 186.011719 27.144531 C 185.730469 27.367188 185.03125 27.339844 184.753906 27.621094 C 184.472656 27.925781 184.527344 28.820312 184.332031 28.90625 C 184.222656 28.960938 184.023438 28.878906 183.941406 28.765625 C 183.800781 28.570312 183.859375 27.730469 183.996094 27.535156 C 184.054688 27.453125 184.222656 27.394531 184.277344 27.453125 C 184.417969 27.535156 184.359375 28.542969 184.222656 28.792969 C 184.136719 28.933594 183.96875 29.074219 183.886719 29.046875 C 183.691406 28.960938 183.4375 27.84375 183.492188 27.480469 C 183.523438 27.257812 183.746094 26.976562 183.800781 26.976562 C 183.914062 27.003906 184.109375 28.261719 183.96875 28.402344 C 183.886719 28.488281 183.660156 28.488281 183.578125 28.402344 C 183.328125 28.121094 183.492188 25.914062 183.773438 25.691406 C 183.914062 25.605469 184.136719 25.660156 184.277344 25.773438 C 184.527344 26.027344 184.863281 27.226562 184.808594 27.589844 C 184.78125 27.757812 184.640625 27.925781 184.554688 27.925781 C 184.390625 27.898438 183.941406 26.976562 184.023438 26.78125 C 184.082031 26.640625 184.417969 26.527344 184.5 26.585938 C 184.613281 26.613281 184.640625 27.089844 184.554688 27.117188 C 184.5 27.144531 184.164062 26.667969 184.109375 26.695312 C 184.082031 26.695312 184.304688 27.171875 184.304688 27.171875 C 184.332031 27.171875 184.25 26.558594 184.136719 26.527344 C 184.054688 26.5 183.773438 26.808594 183.746094 26.949219 C 183.746094 27.089844 183.96875 27.421875 184.082031 27.421875 C 184.304688 27.367188 184.390625 25.660156 184.695312 25.496094 C 184.835938 25.410156 185.117188 25.464844 185.199219 25.605469 C 185.367188 25.886719 184.808594 27.535156 184.585938 27.816406 C 184.472656 27.925781 184.390625 27.984375 184.304688 27.984375 C 184.191406 27.957031 184.082031 27.816406 184.054688 27.703125 C 183.96875 27.480469 183.996094 26.976562 184.164062 26.726562 C 184.332031 26.445312 184.835938 26.082031 185.058594 26.082031 C 185.199219 26.082031 185.394531 26.195312 185.421875 26.304688 C 185.453125 26.472656 185.199219 26.863281 184.949219 27.089844 C 184.640625 27.367188 183.800781 27.871094 183.632812 27.730469 C 183.4375 27.589844 183.660156 26.359375 184.023438 26.054688 C 184.445312 25.691406 186.039062 25.660156 186.207031 25.859375 C 186.261719 25.941406 186.207031 26.136719 186.09375 26.25 C 185.871094 26.5 185.226562 26.667969 184.585938 26.863281 C 183.550781 27.171875 181.0625 27.816406 180.5 27.675781 C 180.335938 27.648438 180.222656 27.5625 180.195312 27.480469 C 180.167969 27.394531 180.222656 27.285156 180.304688 27.171875 C 180.585938 26.863281 182.125 26.027344 182.542969 25.941406 C 182.683594 25.941406 182.792969 25.941406 182.851562 25.996094 C 182.933594 26.082031 182.960938 26.222656 182.878906 26.390625 C 182.710938 26.78125 181.171875 28.261719 180.835938 28.234375 C 180.699219 28.207031 180.585938 28.011719 180.585938 27.898438 C 180.585938 27.730469 180.921875 27.648438 181.0625 27.394531 C 181.339844 26.976562 181.507812 25.496094 181.761719 25.410156 C 181.871094 25.382812 182.066406 25.550781 182.125 25.691406 C 182.234375 25.941406 182.011719 26.5 181.84375 26.949219 C 181.648438 27.480469 181.171875 28.597656 180.976562 28.570312 C 180.835938 28.570312 180.699219 28.09375 180.699219 27.757812 C 180.726562 27.257812 181.003906 26.136719 181.480469 25.859375 C 181.957031 25.578125 182.933594 26.136719 183.632812 26.136719 C 184.304688 26.109375 185.453125 25.605469 185.589844 25.773438 C 185.675781 25.859375 185.589844 26.136719 185.421875 26.277344 C 184.753906 26.753906 179.636719 26.390625 178.40625 26.304688 C 177.957031 26.277344 177.621094 26.304688 177.507812 26.195312 C 177.453125 26.109375 177.480469 25.886719 177.539062 25.800781 C 177.621094 25.71875 177.734375 25.71875 177.957031 25.691406 C 178.796875 25.578125 183.859375 25.242188 184.25 25.71875 C 184.332031 25.828125 184.277344 26.082031 184.136719 26.222656 C 183.660156 26.640625 179.941406 26.808594 179.382812 26.527344 C 179.242188 26.445312 179.160156 26.277344 179.160156 26.195312 C 179.1875 26.054688 179.328125 25.96875 179.550781 25.859375 C 180.222656 25.550781 183.71875 24.851562 184.136719 25.101562 C 184.25 25.1875 184.277344 25.328125 184.25 25.410156 C 184.222656 25.496094 184.136719 25.578125 183.941406 25.632812 C 183.1875 25.859375 178.039062 25.96875 177.453125 25.496094 C 177.285156 25.382812 177.230469 25.160156 177.285156 25.019531 C 177.425781 24.765625 178.347656 24.738281 179.1875 24.65625 C 180.699219 24.488281 184.949219 24.320312 185.703125 24.597656 C 185.871094 24.65625 185.953125 24.738281 185.984375 24.824219 C 185.984375 24.933594 185.925781 25.046875 185.757812 25.128906 C 185.117188 25.464844 180.222656 25.496094 179.523438 25.160156 C 179.328125 25.046875 179.214844 24.878906 179.242188 24.765625 C 179.410156 24.402344 182.992188 24.433594 184.164062 24.125 C 184.890625 23.929688 185.535156 23.398438 185.871094 23.480469 C 186.011719 23.507812 186.207031 23.675781 186.179688 23.789062 C 186.039062 24.292969 178.40625 25.996094 177.59375 25.632812 C 177.398438 25.550781 177.285156 25.296875 177.34375 25.1875 C 177.621094 24.710938 184.222656 24.628906 185.03125 24.90625 C 185.226562 24.964844 185.3125 25.046875 185.339844 25.160156 C 185.339844 25.242188 185.285156 25.382812 185.144531 25.464844 C 184.527344 25.828125 180.363281 25.859375 179.046875 25.886719 C 178.433594 25.886719 177.789062 26.027344 177.648438 25.828125 C 177.566406 25.71875 177.566406 25.464844 177.734375 25.296875 C 178.320312 24.683594 183.886719 23.789062 185.03125 23.816406 C 185.394531 23.816406 185.675781 23.871094 185.730469 23.984375 C 185.757812 24.066406 185.675781 24.207031 185.507812 24.292969 C 185.117188 24.515625 183.660156 24.265625 182.65625 24.375 C 181.507812 24.488281 179.46875 25.242188 178.9375 25.101562 C 178.796875 25.046875 178.683594 24.933594 178.65625 24.851562 C 178.65625 24.765625 178.710938 24.628906 178.878906 24.542969 C 179.523438 24.152344 184.808594 23.59375 185.589844 23.816406 C 185.785156 23.871094 185.925781 23.984375 185.925781 24.066406 C 185.925781 24.152344 185.84375 24.265625 185.703125 24.375 C 185.253906 24.628906 183.605469 24.765625 182.429688 24.851562 C 181.117188 24.964844 178.738281 25.074219 178.179688 24.878906 C 178.011719 24.796875 177.902344 24.710938 177.902344 24.628906 C 177.902344 24.542969 177.984375 24.402344 178.125 24.292969 C 178.515625 24.097656 179.636719 24.066406 180.5 24.011719 C 181.535156 23.929688 183.464844 23.675781 183.941406 23.929688 C 184.109375 24.011719 184.25 24.207031 184.191406 24.320312 C 184.023438 24.65625 179.355469 24.542969 178.738281 24.234375 C 178.574219 24.179688 178.488281 24.066406 178.488281 23.957031 C 178.488281 23.871094 178.574219 23.734375 178.738281 23.703125 C 179.160156 23.566406 181.144531 24.011719 181.535156 24.292969 C 181.675781 24.375 181.761719 24.515625 181.730469 24.597656 C 181.703125 24.683594 181.367188 24.824219 181.367188 24.824219 " clip-rule="nonzero"/></clipPath><clipPath id="afbe7a0f84"><path d="M 28 28 L 42 28 L 42 36 L 28 36 Z M 28 28 " clip-rule="nonzero"/></clipPath><clipPath id="ee7dba661b"><path d="M 28.160156 30.773438 L 40.378906 27.953125 L 41.613281 33.296875 L 29.394531 36.121094 Z M 28.160156 30.773438 " clip-rule="nonzero"/></clipPath><clipPath id="fe3bfb15b9"><path d="M 30.835938 30.15625 L 37.695312 28.570312 C 39.171875 28.230469 40.644531 29.152344 40.984375 30.628906 C 41.328125 32.105469 40.40625 33.578125 38.929688 33.917969 L 32.070312 35.503906 C 30.59375 35.84375 29.121094 34.921875 28.777344 33.445312 C 28.4375 31.96875 29.359375 30.496094 30.835938 30.15625 Z M 30.835938 30.15625 " clip-rule="nonzero"/></clipPath><clipPath id="a1f4f7bb3b"><path d="M 16 23 L 50 23 L 50 37 L 16 37 Z M 16 23 " clip-rule="nonzero"/></clipPath><clipPath id="a144d47446"><path d="M 18.355469 18.875 L 50.855469 31.769531 L 46.304688 43.238281 L 13.804688 30.34375 Z M 18.355469 18.875 " clip-rule="nonzero"/></clipPath><clipPath id="035908f496"><path d="M 18.355469 18.875 L 50.855469 31.769531 L 46.304688 43.238281 L 13.804688 30.34375 Z M 18.355469 18.875 " clip-rule="nonzero"/></clipPath><clipPath id="0367e9b339"><path d="M 18.351562 18.882812 L 50.71875 31.722656 L 46.261719 42.953125 L 13.894531 30.113281 Z M 18.351562 18.882812 " clip-rule="nonzero"/></clipPath><clipPath id="1246baa810"><path d="M 3.746094 5 L 45 5 L 45 62.839844 L 3.746094 62.839844 Z M 3.746094 5 " clip-rule="nonzero"/></clipPath><clipPath id="26217377dd"><path d="M 41 1.136719 L 49 1.136719 L 49 6 L 41 6 Z M 41 1.136719 " clip-rule="nonzero"/></clipPath><clipPath id="466e0379fc"><path d="M 44 7 L 52.597656 7 L 52.597656 14 L 44 14 Z M 44 7 " clip-rule="nonzero"/></clipPath><clipPath id="c9285f28bb"><path d="M 21 12.15625 L 62.710938 12.15625 L 62.710938 70 L 21 70 Z M 21 12.15625 " clip-rule="nonzero"/></clipPath><clipPath id="5f21d31004"><path d="M 17 69 L 25 69 L 25 73.765625 L 17 73.765625 Z M 17 69 " clip-rule="nonzero"/></clipPath></defs><g clip-path="url(#4087a0c0c1)"><path fill="#ffffff" d="M 0 0.0195312 L 224.878906 0.0195312 L 224.878906 74.980469 L 0 74.980469 Z M 0 0.0195312 " fill-opacity="1" fill-rule="nonzero"/><path fill="#ffffff" d="M 0 0.0195312 L 224.878906 0.0195312 L 224.878906 74.980469 L 0 74.980469 Z M 0 0.0195312 " fill-opacity="1" fill-rule="nonzero"/></g><g fill="#198754" fill-opacity="1"><g transform="translate(89.857867, 47.207484)"><g><path d="M 16.78125 -17.140625 L 16.78125 -16.65625 C 16.269531 -16.59375 15.882812 -16.457031 15.625 -16.25 C 15.363281 -16.050781 15.1875 -15.734375 15.09375 -15.296875 C 15.007812 -14.867188 14.96875 -14.257812 14.96875 -13.46875 L 14.96875 0.046875 C 14.769531 0.0351562 14.570312 0.03125 14.375 0.03125 C 14.175781 0.03125 13.960938 0.0351562 13.734375 0.046875 L 3.21875 -13.265625 L 3.21875 -3.96875 C 3.21875 -3.082031 3.265625 -2.398438 3.359375 -1.921875 C 3.460938 -1.453125 3.675781 -1.113281 4 -0.90625 C 4.332031 -0.707031 4.859375 -0.566406 5.578125 -0.484375 L 5.578125 0 C 5.265625 -0.03125 4.859375 -0.0507812 4.359375 -0.0625 C 3.859375 -0.0703125 3.390625 -0.078125 2.953125 -0.078125 C 2.578125 -0.078125 2.195312 -0.0703125 1.8125 -0.0625 C 1.425781 -0.0507812 1.101562 -0.03125 0.84375 0 L 0.84375 -0.484375 C 1.363281 -0.566406 1.75 -0.703125 2 -0.890625 C 2.257812 -1.085938 2.4375 -1.40625 2.53125 -1.84375 C 2.625 -2.289062 2.671875 -2.90625 2.671875 -3.6875 L 2.671875 -14.578125 C 2.671875 -15.171875 2.625 -15.609375 2.53125 -15.890625 C 2.4375 -16.179688 2.253906 -16.378906 1.984375 -16.484375 C 1.722656 -16.585938 1.34375 -16.644531 0.84375 -16.65625 L 0.84375 -17.140625 C 1.101562 -17.128906 1.425781 -17.113281 1.8125 -17.09375 C 2.195312 -17.082031 2.578125 -17.078125 2.953125 -17.078125 C 3.335938 -17.078125 3.707031 -17.082031 4.0625 -17.09375 C 4.425781 -17.113281 4.75 -17.128906 5.03125 -17.140625 L 14.40625 -5.59375 L 14.40625 -13.171875 C 14.40625 -14.054688 14.359375 -14.738281 14.265625 -15.21875 C 14.171875 -15.695312 13.957031 -16.039062 13.625 -16.25 C 13.289062 -16.457031 12.769531 -16.59375 12.0625 -16.65625 L 12.0625 -17.140625 C 12.363281 -17.128906 12.765625 -17.113281 13.265625 -17.09375 C 13.765625 -17.082031 14.234375 -17.078125 14.671875 -17.078125 C 15.066406 -17.078125 15.453125 -17.082031 15.828125 -17.09375 C 16.203125 -17.113281 16.519531 -17.128906 16.78125 -17.140625 Z M 16.78125 -17.140625 "/></g></g></g><g fill="#198754" fill-opacity="1"><g transform="translate(107.337057, 47.207484)"><g><path d="M 8.3125 -17.140625 L 8.3125 -16.65625 C 7.789062 -16.644531 7.394531 -16.585938 7.125 -16.484375 C 6.863281 -16.378906 6.691406 -16.179688 6.609375 -15.890625 C 6.523438 -15.609375 6.484375 -15.171875 6.484375 -14.578125 L 6.484375 -2.5625 C 6.484375 -1.988281 6.523438 -1.554688 6.609375 -1.265625 C 6.703125 -0.972656 6.878906 -0.773438 7.140625 -0.671875 C 7.398438 -0.578125 7.789062 -0.515625 8.3125 -0.484375 L 8.3125 0 C 7.875 -0.03125 7.320312 -0.0507812 6.65625 -0.0625 C 6 -0.0703125 5.332031 -0.078125 4.65625 -0.078125 C 3.863281 -0.078125 3.128906 -0.0703125 2.453125 -0.0625 C 1.785156 -0.0507812 1.242188 -0.03125 0.828125 0 L 0.828125 -0.484375 C 1.335938 -0.515625 1.722656 -0.578125 1.984375 -0.671875 C 2.242188 -0.773438 2.414062 -0.972656 2.5 -1.265625 C 2.59375 -1.554688 2.640625 -1.988281 2.640625 -2.5625 L 2.640625 -14.578125 C 2.640625 -15.171875 2.59375 -15.609375 2.5 -15.890625 C 2.414062 -16.179688 2.238281 -16.378906 1.96875 -16.484375 C 1.707031 -16.585938 1.328125 -16.644531 0.828125 -16.65625 L 0.828125 -17.140625 C 1.242188 -17.128906 1.785156 -17.113281 2.453125 -17.09375 C 3.128906 -17.082031 3.863281 -17.078125 4.65625 -17.078125 C 5.332031 -17.078125 6 -17.082031 6.65625 -17.09375 C 7.320312 -17.113281 7.875 -17.128906 8.3125 -17.140625 Z M 8.3125 -17.140625 "/></g></g></g><g fill="#198754" fill-opacity="1"><g transform="translate(116.439791, 47.207484)"><g><path d="M 6.875 -17.46875 C 7.832031 -17.46875 8.566406 -17.363281 9.078125 -17.15625 C 9.597656 -16.957031 10.046875 -16.742188 10.421875 -16.515625 C 10.609375 -16.398438 10.757812 -16.3125 10.875 -16.25 C 11 -16.195312 11.117188 -16.171875 11.234375 -16.171875 C 11.398438 -16.171875 11.519531 -16.257812 11.59375 -16.4375 C 11.664062 -16.625 11.722656 -16.894531 11.765625 -17.25 L 12.328125 -17.25 C 12.304688 -16.9375 12.285156 -16.566406 12.265625 -16.140625 C 12.242188 -15.710938 12.226562 -15.148438 12.21875 -14.453125 C 12.207031 -13.765625 12.203125 -12.851562 12.203125 -11.71875 L 11.65625 -11.71875 C 11.582031 -12.5625 11.382812 -13.378906 11.0625 -14.171875 C 10.738281 -14.960938 10.28125 -15.609375 9.6875 -16.109375 C 9.101562 -16.617188 8.382812 -16.875 7.53125 -16.875 C 6.757812 -16.875 6.125 -16.65625 5.625 -16.21875 C 5.125 -15.789062 4.875 -15.1875 4.875 -14.40625 C 4.875 -13.757812 5.035156 -13.207031 5.359375 -12.75 C 5.679688 -12.289062 6.148438 -11.84375 6.765625 -11.40625 C 7.390625 -10.96875 8.144531 -10.441406 9.03125 -9.828125 C 9.8125 -9.328125 10.503906 -8.828125 11.109375 -8.328125 C 11.722656 -7.828125 12.21875 -7.257812 12.59375 -6.625 C 12.96875 -6 13.15625 -5.253906 13.15625 -4.390625 C 13.15625 -3.316406 12.875 -2.429688 12.3125 -1.734375 C 11.757812 -1.046875 11.03125 -0.523438 10.125 -0.171875 C 9.21875 0.171875 8.222656 0.34375 7.140625 0.34375 C 6.140625 0.34375 5.335938 0.242188 4.734375 0.046875 C 4.140625 -0.148438 3.644531 -0.351562 3.25 -0.5625 C 2.894531 -0.78125 2.617188 -0.890625 2.421875 -0.890625 C 2.265625 -0.890625 2.148438 -0.800781 2.078125 -0.625 C 2.003906 -0.445312 1.941406 -0.179688 1.890625 0.171875 L 1.328125 0.171875 C 1.359375 -0.210938 1.378906 -0.664062 1.390625 -1.1875 C 1.398438 -1.707031 1.40625 -2.378906 1.40625 -3.203125 C 1.414062 -4.035156 1.421875 -5.09375 1.421875 -6.375 L 1.984375 -6.375 C 2.046875 -5.300781 2.226562 -4.300781 2.53125 -3.375 C 2.832031 -2.445312 3.289062 -1.703125 3.90625 -1.140625 C 4.53125 -0.578125 5.359375 -0.296875 6.390625 -0.296875 C 6.953125 -0.296875 7.457031 -0.394531 7.90625 -0.59375 C 8.351562 -0.789062 8.710938 -1.09375 8.984375 -1.5 C 9.253906 -1.90625 9.390625 -2.40625 9.390625 -3 C 9.390625 -3.675781 9.234375 -4.265625 8.921875 -4.765625 C 8.609375 -5.265625 8.179688 -5.734375 7.640625 -6.171875 C 7.097656 -6.609375 6.472656 -7.054688 5.765625 -7.515625 C 5.003906 -8.015625 4.289062 -8.515625 3.625 -9.015625 C 2.96875 -9.515625 2.441406 -10.085938 2.046875 -10.734375 C 1.648438 -11.378906 1.453125 -12.144531 1.453125 -13.03125 C 1.453125 -14.050781 1.707031 -14.882812 2.21875 -15.53125 C 2.726562 -16.1875 3.394531 -16.671875 4.21875 -16.984375 C 5.050781 -17.304688 5.9375 -17.46875 6.875 -17.46875 Z M 6.875 -17.46875 "/></g></g></g><g fill="#198754" fill-opacity="1"><g transform="translate(130.578084, 47.207484)"><g><path d="M 21.65625 -17.140625 L 21.65625 -16.65625 C 21.132812 -16.644531 20.742188 -16.585938 20.484375 -16.484375 C 20.234375 -16.378906 20.0625 -16.179688 19.96875 -15.890625 C 19.875 -15.609375 19.828125 -15.171875 19.828125 -14.578125 L 19.828125 -2.5625 C 19.828125 -1.988281 19.875 -1.554688 19.96875 -1.265625 C 20.0625 -0.972656 20.234375 -0.773438 20.484375 -0.671875 C 20.742188 -0.578125 21.132812 -0.515625 21.65625 -0.484375 L 21.65625 0 C 21.195312 -0.03125 20.625 -0.0507812 19.9375 -0.0625 C 19.257812 -0.0703125 18.5625 -0.078125 17.84375 -0.078125 C 17.070312 -0.078125 16.347656 -0.0703125 15.671875 -0.0625 C 14.992188 -0.0507812 14.441406 -0.03125 14.015625 0 L 14.015625 -0.484375 C 14.566406 -0.515625 14.984375 -0.578125 15.265625 -0.671875 C 15.546875 -0.773438 15.734375 -0.972656 15.828125 -1.265625 C 15.929688 -1.554688 15.984375 -1.988281 15.984375 -2.5625 L 15.984375 -15.671875 L 16.15625 -15.671875 L 10.140625 0.03125 L 9.765625 0.03125 L 3.21875 -15.578125 L 3.21875 -3.96875 C 3.21875 -3.082031 3.265625 -2.398438 3.359375 -1.921875 C 3.460938 -1.453125 3.675781 -1.113281 4 -0.90625 C 4.332031 -0.707031 4.859375 -0.566406 5.578125 -0.484375 L 5.578125 0 C 5.265625 -0.03125 4.859375 -0.0507812 4.359375 -0.0625 C 3.859375 -0.0703125 3.390625 -0.078125 2.953125 -0.078125 C 2.578125 -0.078125 2.195312 -0.0703125 1.8125 -0.0625 C 1.425781 -0.0507812 1.101562 -0.03125 0.84375 0 L 0.84375 -0.484375 C 1.363281 -0.566406 1.75 -0.703125 2 -0.890625 C 2.257812 -1.085938 2.4375 -1.40625 2.53125 -1.84375 C 2.625 -2.289062 2.671875 -2.90625 2.671875 -3.6875 L 2.671875 -14.578125 C 2.671875 -15.171875 2.625 -15.609375 2.53125 -15.890625 C 2.4375 -16.179688 2.253906 -16.378906 1.984375 -16.484375 C 1.722656 -16.585938 1.34375 -16.644531 0.84375 -16.65625 L 0.84375 -17.140625 C 1.101562 -17.128906 1.425781 -17.113281 1.8125 -17.09375 C 2.195312 -17.082031 2.578125 -17.078125 2.953125 -17.078125 C 3.648438 -17.078125 4.332031 -17.082031 5 -17.09375 C 5.664062 -17.113281 6.257812 -17.128906 6.78125 -17.140625 L 11.875 -4.875 L 11.265625 -4.3125 L 16.125 -17.078125 C 16.40625 -17.078125 16.6875 -17.078125 16.96875 -17.078125 C 17.257812 -17.078125 17.550781 -17.078125 17.84375 -17.078125 C 18.5625 -17.078125 19.257812 -17.082031 19.9375 -17.09375 C 20.625 -17.113281 21.195312 -17.128906 21.65625 -17.140625 Z M 21.65625 -17.140625 "/></g></g></g><g clip-path="url(#44aca6b0b4)"><path fill="#198754" d="M 77.6875 29.023438 C 80.386719 29.023438 82.828125 30.105469 84.582031 31.878906 C 86.238281 33.535156 86.945312 35.523438 87.105469 38.261719 C 87.085938 38.261719 86.570312 35.148438 83.914062 32.570312 C 82.316406 30.972656 80.109375 29.988281 77.6875 29.988281 C 75.265625 29.988281 73.039062 30.972656 71.464844 32.570312 C 69.867188 34.164062 68.882812 36.351562 68.882812 38.792969 C 68.882812 41.234375 69.867188 43.421875 71.464844 45.019531 C 73.039062 46.613281 75.246094 47.597656 77.6875 47.597656 C 79.875 47.597656 81.882812 46.789062 83.421875 45.472656 C 83.28125 45.371094 83.085938 45.273438 82.988281 45.234375 C 82.886719 45.175781 82.789062 45.136719 82.691406 45.097656 C 82.613281 45.058594 82.476562 45.019531 82.414062 45 L 82.769531 44.644531 C 82.828125 44.625 82.847656 44.644531 82.886719 44.644531 L 84.265625 44.683594 L 85.074219 43.777344 C 85.351562 43.441406 85.6875 43.167969 85.980469 42.871094 C 85.863281 42.675781 85.015625 42.101562 84.800781 41.964844 C 84.40625 41.707031 84.03125 41.492188 83.617188 41.253906 C 83.421875 41.136719 81.351562 40.015625 81.234375 39.898438 L 81.628906 39.542969 L 85.707031 40.84375 C 85.863281 40.722656 86.058594 40.507812 86.199219 40.371094 C 86.257812 40.328125 86.296875 40.328125 86.355469 40.390625 C 86.769531 40.761719 86.570312 40.683594 86.277344 41.019531 L 87.515625 41.414062 C 88.011719 40.980469 88.503906 40.488281 88.976562 40.054688 C 90.058594 39.011719 90.808594 39.285156 90.3125 40.171875 C 90.175781 40.429688 89.980469 40.644531 89.742188 40.863281 C 89.269531 41.316406 88.777344 41.769531 88.304688 42.222656 L 88.640625 43.5 C 88.976562 43.226562 88.914062 43.027344 89.269531 43.460938 C 89.367188 43.578125 89.191406 43.679688 89.09375 43.777344 C 88.996094 43.875 88.875 43.972656 88.777344 44.074219 L 89.839844 48.226562 L 89.46875 48.601562 C 89.367188 48.464844 88.363281 46.335938 88.246094 46.121094 C 87.988281 45.589844 87.203125 43.992188 86.808594 43.640625 C 86.472656 43.933594 86.179688 44.25 85.84375 44.523438 C 85.527344 44.761719 85.210938 45.019531 84.898438 45.253906 C 84.757812 45.351562 84.800781 45.332031 84.800781 45.472656 L 84.78125 46.160156 C 84.78125 46.316406 84.78125 46.457031 84.757812 46.613281 C 84.757812 46.75 84.78125 46.710938 84.621094 46.847656 C 84.542969 46.929688 84.464844 47.007812 84.386719 47.066406 C 84.347656 46.988281 84.328125 46.886719 84.289062 46.789062 C 84.269531 46.691406 84.226562 46.59375 84.1875 46.496094 C 84.167969 46.457031 84.109375 46.316406 84.050781 46.199219 C 82.335938 47.675781 80.109375 48.5625 77.6875 48.5625 C 74.988281 48.5625 72.546875 47.460938 70.777344 45.707031 C 69.003906 43.933594 67.898438 41.492188 67.898438 38.792969 C 67.898438 36.09375 69.003906 33.652344 70.777344 31.878906 C 72.546875 30.105469 74.992188 29.023438 77.6875 29.023438 Z M 77.6875 29.023438 " fill-opacity="1" fill-rule="nonzero"/></g><g clip-path="url(#60a55250ec)"><path fill="#ffc72c" d="M 77.6875 29.023438 C 80.386719 29.023438 82.828125 30.105469 84.582031 31.878906 C 86.238281 33.535156 86.945312 35.523438 87.105469 38.261719 C 87.085938 38.261719 86.570312 35.148438 83.914062 32.570312 C 82.316406 30.972656 80.109375 29.988281 77.6875 29.988281 C 75.265625 29.988281 73.039062 30.972656 71.464844 32.570312 C 69.867188 34.164062 68.882812 36.351562 68.882812 38.792969 C 68.882812 41.234375 69.867188 43.421875 71.464844 45.019531 C 73.039062 46.613281 75.246094 47.597656 77.6875 47.597656 C 79.875 47.597656 81.882812 46.789062 83.421875 45.472656 C 83.28125 45.371094 83.085938 45.273438 82.988281 45.234375 C 82.886719 45.175781 82.789062 45.136719 82.691406 45.097656 C 82.613281 45.058594 82.476562 45.019531 82.414062 45 L 82.769531 44.644531 C 82.828125 44.625 82.847656 44.644531 82.886719 44.644531 L 84.265625 44.683594 L 85.074219 43.777344 C 85.351562 43.441406 85.6875 43.167969 85.980469 42.871094 C 85.863281 42.675781 85.015625 42.101562 84.800781 41.964844 C 84.40625 41.707031 84.03125 41.492188 83.617188 41.253906 C 83.421875 41.136719 81.351562 40.015625 81.234375 39.898438 L 81.628906 39.542969 L 85.707031 40.84375 C 85.863281 40.722656 86.058594 40.507812 86.199219 40.371094 C 86.257812 40.328125 86.296875 40.328125 86.355469 40.390625 C 86.769531 40.761719 86.570312 40.683594 86.277344 41.019531 L 87.515625 41.414062 C 88.011719 40.980469 88.503906 40.488281 88.976562 40.054688 C 90.058594 39.011719 90.808594 39.285156 90.3125 40.171875 C 90.175781 40.429688 89.980469 40.644531 89.742188 40.863281 C 89.269531 41.316406 88.777344 41.769531 88.304688 42.222656 L 88.640625 43.5 C 88.976562 43.226562 88.914062 43.027344 89.269531 43.460938 C 89.367188 43.578125 89.191406 43.679688 89.09375 43.777344 C 88.996094 43.875 88.875 43.972656 88.777344 44.074219 L 89.839844 48.226562 L 89.46875 48.601562 C 89.367188 48.464844 88.363281 46.335938 88.246094 46.121094 C 87.988281 45.589844 87.203125 43.992188 86.808594 43.640625 C 86.472656 43.933594 86.179688 44.25 85.84375 44.523438 C 85.527344 44.761719 85.210938 45.019531 84.898438 45.253906 C 84.757812 45.351562 84.800781 45.332031 84.800781 45.472656 L 84.78125 46.160156 C 84.78125 46.316406 84.78125 46.457031 84.757812 46.613281 C 84.757812 46.75 84.78125 46.710938 84.621094 46.847656 C 84.542969 46.929688 84.464844 47.007812 84.386719 47.066406 C 84.347656 46.988281 84.328125 46.886719 84.289062 46.789062 C 84.269531 46.691406 84.226562 46.59375 84.1875 46.496094 C 84.167969 46.457031 84.109375 46.316406 84.050781 46.199219 C 82.335938 47.675781 80.109375 48.5625 77.6875 48.5625 C 74.988281 48.5625 72.546875 47.460938 70.777344 45.707031 C 69.003906 43.933594 67.898438 41.492188 67.898438 38.792969 C 67.898438 36.09375 69.003906 33.652344 70.777344 31.878906 C 72.546875 30.105469 74.992188 29.023438 77.6875 29.023438 Z M 77.6875 29.023438 " fill-opacity="1" fill-rule="nonzero"/></g><g fill="#198754" fill-opacity="1"><g transform="translate(189.020466, 47.588354)"><g><path d="M 16.234375 -17.125 L 16.234375 -16.640625 C 15.710938 -16.578125 15.316406 -16.441406 15.046875 -16.234375 C 14.785156 -16.035156 14.613281 -15.71875 14.53125 -15.28125 C 14.457031 -14.851562 14.421875 -14.242188 14.421875 -13.453125 L 14.421875 -7.03125 C 14.421875 -5.988281 14.347656 -5.03125 14.203125 -4.15625 C 14.054688 -3.289062 13.796875 -2.539062 13.421875 -1.90625 C 13.003906 -1.21875 12.390625 -0.671875 11.578125 -0.265625 C 10.773438 0.140625 9.753906 0.34375 8.515625 0.34375 C 7.773438 0.34375 7.015625 0.253906 6.234375 0.078125 C 5.460938 -0.0859375 4.769531 -0.40625 4.15625 -0.875 C 3.644531 -1.3125 3.25 -1.800781 2.96875 -2.34375 C 2.695312 -2.894531 2.515625 -3.546875 2.421875 -4.296875 C 2.328125 -5.046875 2.28125 -5.9375 2.28125 -6.96875 L 2.28125 -14.5625 C 2.28125 -15.15625 2.234375 -15.59375 2.140625 -15.875 C 2.046875 -16.15625 1.867188 -16.347656 1.609375 -16.453125 C 1.359375 -16.554688 0.972656 -16.617188 0.453125 -16.640625 L 0.453125 -17.125 C 0.859375 -17.101562 1.40625 -17.082031 2.09375 -17.0625 C 2.78125 -17.050781 3.492188 -17.046875 4.234375 -17.046875 C 4.972656 -17.046875 5.6875 -17.050781 6.375 -17.0625 C 7.0625 -17.082031 7.628906 -17.101562 8.078125 -17.125 L 8.078125 -16.640625 C 7.523438 -16.617188 7.109375 -16.554688 6.828125 -16.453125 C 6.546875 -16.347656 6.359375 -16.15625 6.265625 -15.875 C 6.171875 -15.59375 6.125 -15.15625 6.125 -14.5625 L 6.125 -5.4375 C 6.125 -4.632812 6.175781 -3.921875 6.28125 -3.296875 C 6.382812 -2.679688 6.5625 -2.164062 6.8125 -1.75 C 7.0625 -1.34375 7.398438 -1.035156 7.828125 -0.828125 C 8.265625 -0.617188 8.804688 -0.515625 9.453125 -0.515625 C 10.585938 -0.515625 11.472656 -0.78125 12.109375 -1.3125 C 12.742188 -1.84375 13.191406 -2.578125 13.453125 -3.515625 C 13.722656 -4.460938 13.859375 -5.546875 13.859375 -6.765625 L 13.859375 -13.15625 C 13.859375 -14.039062 13.800781 -14.722656 13.6875 -15.203125 C 13.570312 -15.679688 13.347656 -16.023438 13.015625 -16.234375 C 12.691406 -16.441406 12.191406 -16.578125 11.515625 -16.640625 L 11.515625 -17.125 C 11.816406 -17.101562 12.21875 -17.082031 12.71875 -17.0625 C 13.21875 -17.050781 13.6875 -17.046875 14.125 -17.046875 C 14.507812 -17.046875 14.890625 -17.050781 15.265625 -17.0625 C 15.648438 -17.082031 15.972656 -17.101562 16.234375 -17.125 Z M 16.234375 -17.125 "/></g></g></g><g fill="#198754" fill-opacity="1"><g transform="translate(205.676726, 47.588354)"><g><path d="M 0.828125 -17.125 C 1.222656 -17.101562 1.765625 -17.082031 2.453125 -17.0625 C 3.140625 -17.050781 3.820312 -17.046875 4.5 -17.046875 C 5.269531 -17.046875 6.019531 -17.050781 6.75 -17.0625 C 7.476562 -17.082031 7.992188 -17.09375 8.296875 -17.09375 C 9.796875 -17.09375 11.039062 -16.925781 12.03125 -16.59375 C 13.019531 -16.269531 13.757812 -15.789062 14.25 -15.15625 C 14.75 -14.53125 15 -13.773438 15 -12.890625 C 15 -12.335938 14.882812 -11.785156 14.65625 -11.234375 C 14.425781 -10.679688 14.039062 -10.164062 13.5 -9.6875 C 12.96875 -9.207031 12.234375 -8.828125 11.296875 -8.546875 C 10.359375 -8.265625 9.179688 -8.125 7.765625 -8.125 L 5.4375 -8.125 L 5.4375 -8.609375 L 7.515625 -8.609375 C 8.472656 -8.609375 9.195312 -8.789062 9.6875 -9.15625 C 10.175781 -9.519531 10.515625 -10.003906 10.703125 -10.609375 C 10.890625 -11.210938 10.984375 -11.882812 10.984375 -12.625 C 10.984375 -13.894531 10.753906 -14.878906 10.296875 -15.578125 C 9.847656 -16.285156 9.078125 -16.640625 7.984375 -16.640625 C 7.347656 -16.640625 6.9375 -16.5 6.75 -16.21875 C 6.570312 -15.945312 6.484375 -15.394531 6.484375 -14.5625 L 6.484375 -2.5625 C 6.484375 -1.976562 6.523438 -1.539062 6.609375 -1.25 C 6.703125 -0.96875 6.875 -0.773438 7.125 -0.671875 C 7.382812 -0.578125 7.773438 -0.515625 8.296875 -0.484375 L 8.296875 0 C 7.859375 -0.03125 7.304688 -0.0507812 6.640625 -0.0625 C 5.984375 -0.0703125 5.316406 -0.078125 4.640625 -0.078125 C 3.867188 -0.078125 3.140625 -0.0703125 2.453125 -0.0625 C 1.765625 -0.0507812 1.222656 -0.03125 0.828125 0 L 0.828125 -0.484375 C 1.335938 -0.515625 1.722656 -0.578125 1.984375 -0.671875 C 2.242188 -0.773438 2.414062 -0.96875 2.5 -1.25 C 2.59375 -1.539062 2.640625 -1.976562 2.640625 -2.5625 L 2.640625 -14.5625 C 2.640625 -15.15625 2.59375 -15.59375 2.5 -15.875 C 2.414062 -16.15625 2.238281 -16.347656 1.96875 -16.453125 C 1.707031 -16.554688 1.328125 -16.617188 0.828125 -16.640625 Z M 5.390625 -8.53125 C 6.085938 -8.519531 6.6875 -8.488281 7.1875 -8.4375 C 7.695312 -8.394531 8.144531 -8.351562 8.53125 -8.3125 C 8.925781 -8.269531 9.273438 -8.238281 9.578125 -8.21875 C 11.046875 -8.09375 12.128906 -7.78125 12.828125 -7.28125 C 13.535156 -6.78125 13.992188 -6.03125 14.203125 -5.03125 L 14.75 -2.546875 C 14.894531 -1.898438 15.046875 -1.445312 15.203125 -1.1875 C 15.367188 -0.925781 15.609375 -0.796875 15.921875 -0.796875 C 16.128906 -0.816406 16.300781 -0.867188 16.4375 -0.953125 C 16.570312 -1.046875 16.722656 -1.179688 16.890625 -1.359375 L 17.21875 -1.0625 C 16.78125 -0.5625 16.3125 -0.203125 15.8125 0.015625 C 15.3125 0.234375 14.707031 0.34375 14 0.34375 C 13.132812 0.34375 12.414062 0.15625 11.84375 -0.21875 C 11.28125 -0.59375 10.910156 -1.28125 10.734375 -2.28125 L 10.296875 -4.6875 C 10.191406 -5.363281 10.054688 -5.957031 9.890625 -6.46875 C 9.734375 -6.976562 9.507812 -7.378906 9.21875 -7.671875 C 8.9375 -7.972656 8.546875 -8.125 8.046875 -8.125 L 5.4375 -8.125 Z M 5.390625 -8.53125 "/></g></g></g><g fill="#198754" fill-opacity="1"><g transform="translate(156.80578, 46.848925)"><g><path d="M 15.453125 -17.046875 C 15.390625 -16.222656 15.347656 -15.4375 15.328125 -14.6875 C 15.304688 -13.9375 15.296875 -13.359375 15.296875 -12.953125 C 15.296875 -12.597656 15.300781 -12.257812 15.3125 -11.9375 C 15.332031 -11.625 15.347656 -11.351562 15.359375 -11.125 L 14.8125 -11.125 C 14.550781 -12.46875 14.222656 -13.53125 13.828125 -14.3125 C 13.441406 -15.101562 12.972656 -15.664062 12.421875 -16 C 11.878906 -16.332031 11.238281 -16.5 10.5 -16.5 L 9.9375 -16.5 L 9.9375 -2.75 C 9.9375 -2.101562 10.003906 -1.617188 10.140625 -1.296875 C 10.285156 -0.972656 10.539062 -0.757812 10.90625 -0.65625 C 11.28125 -0.550781 11.816406 -0.492188 12.515625 -0.484375 L 12.515625 0 C 12.023438 -0.0195312 11.363281 -0.0351562 10.53125 -0.046875 C 9.707031 -0.0664062 8.847656 -0.078125 7.953125 -0.078125 C 7.066406 -0.078125 6.226562 -0.0664062 5.4375 -0.046875 C 4.65625 -0.0351562 4.023438 -0.0195312 3.546875 0 L 3.546875 -0.484375 C 4.265625 -0.492188 4.804688 -0.550781 5.171875 -0.65625 C 5.546875 -0.757812 5.796875 -0.972656 5.921875 -1.296875 C 6.046875 -1.617188 6.109375 -2.101562 6.109375 -2.75 L 6.109375 -16.5 L 5.59375 -16.5 C 4.851562 -16.5 4.207031 -16.332031 3.65625 -16 C 3.113281 -15.664062 2.648438 -15.109375 2.265625 -14.328125 C 1.878906 -13.554688 1.539062 -12.488281 1.25 -11.125 L 0.703125 -11.125 C 0.734375 -11.351562 0.75 -11.625 0.75 -11.9375 C 0.757812 -12.257812 0.765625 -12.597656 0.765625 -12.953125 C 0.765625 -13.359375 0.753906 -13.9375 0.734375 -14.6875 C 0.710938 -15.4375 0.671875 -16.222656 0.609375 -17.046875 C 1.335938 -17.023438 2.140625 -17.003906 3.015625 -16.984375 C 3.890625 -16.972656 4.769531 -16.96875 5.65625 -16.96875 C 6.539062 -16.96875 7.335938 -16.96875 8.046875 -16.96875 C 8.765625 -16.96875 9.5625 -16.96875 10.4375 -16.96875 C 11.3125 -16.96875 12.191406 -16.972656 13.078125 -16.984375 C 13.960938 -17.003906 14.753906 -17.023438 15.453125 -17.046875 Z M 15.453125 -17.046875 "/></g></g></g><path fill="#198754" d="M 175.523438 39.914062 C 179.09375 38.683594 182.019531 36.757812 184.304688 34.140625 C 185.515625 32.757812 186.578125 30.074219 185.519531 28.285156 C 184.972656 27.367188 185.082031 27.28125 185.835938 28.039062 C 188.214844 30.429688 186.742188 33.628906 184.96875 35.90625 C 182.335938 39.289062 179.027344 41.828125 175.042969 43.53125 C 174.929688 43.578125 174.835938 43.550781 174.761719 43.449219 C 172.484375 40.253906 172.503906 36.34375 174.851562 33.21875 C 176.792969 30.632812 180.738281 29.050781 184.167969 30.382812 C 184.308594 30.4375 184.304688 30.472656 184.152344 30.488281 C 179.335938 30.871094 173.964844 34.269531 175.332031 39.808594 C 175.355469 39.914062 175.421875 39.949219 175.523438 39.914062 Z M 175.523438 39.914062 " fill-opacity="1" fill-rule="evenodd"/><g clip-path="url(#05e24ea86a)"><path fill="#ffc72c" d="M 180.328125 44.6875 C 187.042969 45.386719 189.871094 38.941406 188.1875 33.347656 C 188.183594 33.339844 188.179688 33.328125 188.179688 33.320312 C 188.179688 33.285156 188.210938 33.253906 188.246094 33.253906 C 188.273438 33.253906 188.296875 33.269531 188.308594 33.292969 C 190.234375 36.273438 190.492188 39.1875 189.089844 42.035156 C 188.636719 42.953125 187.742188 44.082031 186.402344 45.425781 C 184.824219 47.007812 183.242188 48.585938 181.65625 50.164062 C 181.558594 50.253906 181.464844 50.253906 181.371094 50.164062 L 176.046875 44.839844 C 175.96875 44.761719 175.980469 44.699219 176.082031 44.652344 C 180.003906 42.847656 183.320312 40.261719 186.019531 36.902344 C 186.03125 36.886719 186.046875 36.878906 186.066406 36.878906 C 186.09375 36.878906 186.121094 36.902344 186.121094 36.933594 C 186.121094 36.9375 186.117188 36.945312 186.117188 36.953125 C 185.039062 39.988281 182.722656 42.476562 180.261719 44.476562 C 180.234375 44.5 180.21875 44.53125 180.21875 44.566406 C 180.21875 44.632812 180.265625 44.683594 180.328125 44.6875 Z M 180.328125 44.6875 " fill-opacity="1" fill-rule="evenodd"/></g><g clip-path="url(#b7eb2e794f)"><path fill="#198754" d="M 184.480469 27.304688 L 184.171875 28.128906 C 184.144531 28.203125 184.097656 28.222656 184.03125 28.195312 C 183.925781 28.15625 183.878906 28.054688 183.878906 27.898438 C 183.882812 27.589844 183.875 27.285156 183.847656 26.980469 C 183.847656 26.953125 183.835938 26.925781 183.8125 26.914062 L 182.699219 26.152344 C 182.671875 26.132812 182.648438 26.140625 182.640625 26.175781 L 181.898438 28.589844 C 181.886719 28.617188 181.859375 28.636719 181.828125 28.636719 C 181.820312 28.636719 181.808594 28.636719 181.800781 28.628906 C 181.421875 28.457031 181.484375 28.207031 181.503906 27.859375 C 181.535156 27.066406 181.574219 26.277344 181.625 25.484375 C 181.628906 25.433594 181.605469 25.386719 181.5625 25.359375 C 181.058594 25.019531 180.332031 24.605469 180.269531 23.914062 C 180.269531 23.894531 180.277344 23.882812 180.300781 23.878906 C 180.980469 23.773438 181.546875 24.300781 182.019531 24.699219 C 182.066406 24.742188 182.136719 24.753906 182.195312 24.730469 C 183.007812 24.441406 183.820312 24.152344 184.632812 23.867188 C 184.898438 23.773438 185.023438 23.800781 185.230469 23.96875 C 185.25 23.988281 185.261719 24.015625 185.261719 24.042969 C 185.261719 24.074219 185.246094 24.105469 185.222656 24.121094 L 183.132812 25.507812 C 183.121094 25.511719 183.117188 25.527344 183.117188 25.542969 C 183.117188 25.554688 183.121094 25.566406 183.128906 25.574219 L 184.1875 26.429688 C 184.203125 26.441406 184.226562 26.449219 184.25 26.445312 C 184.558594 26.375 185.183594 26.125 185.464844 26.253906 C 185.472656 26.253906 185.480469 26.257812 185.484375 26.265625 C 185.523438 26.296875 185.527344 26.351562 185.496094 26.390625 C 185.492188 26.398438 185.484375 26.402344 185.480469 26.40625 L 184.753906 26.9375 C 184.730469 26.953125 184.726562 26.988281 184.738281 27.011719 L 184.964844 27.332031 C 184.96875 27.339844 184.972656 27.351562 184.972656 27.359375 C 184.972656 27.390625 184.949219 27.414062 184.921875 27.414062 C 184.914062 27.414062 184.910156 27.414062 184.902344 27.414062 L 184.535156 27.28125 C 184.53125 27.277344 184.527344 27.277344 184.523438 27.277344 C 184.503906 27.277344 184.488281 27.289062 184.480469 27.304688 Z M 184.480469 27.304688 " fill-opacity="1" fill-rule="evenodd"/></g><path fill="#ffffff" d="M 181.753906 31.648438 C 181.742188 31.679688 181.730469 31.710938 181.722656 31.738281 L 181.511719 32.3125 C 181.476562 32.3125 181.441406 32.3125 181.40625 32.316406 C 179.480469 32.429688 177.652344 33.472656 176.601562 35.21875 C 176.621094 35.175781 176.640625 35.128906 176.664062 35.082031 C 176.695312 35.015625 176.730469 34.949219 176.761719 34.878906 C 177.078125 34.277344 177.480469 33.746094 177.949219 33.300781 C 178.910156 32.382812 180.144531 31.820312 181.441406 31.675781 C 181.542969 31.664062 181.648438 31.652344 181.753906 31.648438 Z M 181.753906 31.648438 " fill-opacity="1" fill-rule="evenodd"/><g clip-path="url(#0d521ba496)"><path fill="#198754" d="M 185.578125 30.320312 C 185.570312 30.347656 185.542969 30.375 185.503906 30.402344 C 185.410156 30.460938 185.238281 30.511719 185.011719 30.550781 C 185.003906 30.554688 184.996094 30.554688 184.988281 30.554688 C 184.855469 30.578125 184.703125 30.597656 184.539062 30.613281 C 184.414062 30.625 184.277344 30.636719 184.136719 30.644531 L 183.988281 30.851562 L 183.703125 31.242188 L 183.5 31.523438 L 183.136719 32.019531 L 182.921875 32.316406 L 182.84375 32.421875 L 182.757812 32.539062 L 182.734375 32.574219 C 182.691406 32.625 182.625 32.65625 182.550781 32.65625 C 182.417969 32.65625 182.308594 32.550781 182.308594 32.414062 C 182.308594 32.402344 182.308594 32.386719 182.3125 32.375 C 182.324219 32.34375 182.335938 32.3125 182.351562 32.277344 C 182.351562 32.269531 182.355469 32.261719 182.359375 32.253906 C 182.363281 32.242188 182.371094 32.230469 182.375 32.21875 L 182.609375 31.574219 C 182.699219 31.300781 182.785156 31.027344 182.859375 30.753906 C 182.863281 30.742188 182.867188 30.734375 182.867188 30.722656 L 181.328125 30.722656 L 181.328125 30.042969 C 181.457031 30.015625 181.589844 29.996094 181.722656 29.976562 C 181.929688 29.949219 182.140625 29.929688 182.347656 29.917969 L 182.867188 29.917969 C 182.867188 29.914062 182.867188 29.910156 182.863281 29.90625 C 182.789062 29.628906 182.703125 29.347656 182.609375 29.066406 L 182.402344 28.503906 L 182.375 28.421875 C 182.371094 28.410156 182.363281 28.398438 182.359375 28.386719 C 182.355469 28.378906 182.351562 28.371094 182.351562 28.363281 C 182.335938 28.332031 182.324219 28.296875 182.3125 28.265625 C 182.308594 28.253906 182.308594 28.242188 182.308594 28.226562 C 182.308594 28.09375 182.417969 27.984375 182.550781 27.984375 C 182.625 27.984375 182.691406 28.015625 182.734375 28.066406 L 182.757812 28.101562 L 182.84375 28.21875 L 182.921875 28.324219 L 183.09375 28.558594 L 183.136719 28.621094 L 183.5 29.117188 L 183.703125 29.398438 L 184.136719 29.996094 C 184.277344 30.003906 184.414062 30.015625 184.539062 30.027344 C 184.703125 30.042969 184.855469 30.0625 184.988281 30.085938 C 184.996094 30.085938 185.003906 30.085938 185.011719 30.089844 C 185.238281 30.128906 185.410156 30.179688 185.503906 30.238281 C 185.542969 30.265625 185.570312 30.292969 185.578125 30.320312 Z M 185.578125 30.320312 " fill-opacity="1" fill-rule="evenodd"/></g><g clip-path="url(#71296eb83c)"><path fill="#198754" d="M 183.171875 29.917969 C 183.070312 29.910156 182.96875 29.90625 182.863281 29.90625 C 182.691406 29.90625 182.519531 29.90625 182.347656 29.917969 C 182.140625 29.929688 181.929688 29.949219 181.722656 29.976562 C 181.589844 29.996094 181.457031 30.015625 181.328125 30.039062 C 179.078125 30.464844 177.039062 31.882812 175.898438 34.070312 C 175.058594 35.679688 174.84375 37.449219 175.164062 39.105469 C 175.160156 39.070312 175.160156 39.035156 175.15625 39 L 175.152344 38.945312 C 175.148438 38.898438 175.144531 38.851562 175.144531 38.804688 C 175.144531 38.789062 175.140625 38.773438 175.140625 38.753906 C 175.140625 38.734375 175.140625 38.710938 175.140625 38.691406 C 175.140625 38.6875 175.136719 38.6875 175.136719 38.683594 C 175.136719 38.664062 175.136719 38.644531 175.136719 38.628906 C 175.136719 38.621094 175.136719 38.613281 175.136719 38.609375 C 175.136719 38.597656 175.136719 38.585938 175.136719 38.578125 C 175.132812 38.542969 175.132812 38.507812 175.132812 38.472656 C 175.132812 38.453125 175.132812 38.4375 175.132812 38.417969 L 175.132812 38.386719 C 175.132812 34.171875 178.550781 30.753906 182.769531 30.753906 C 182.796875 30.753906 182.828125 30.753906 182.859375 30.753906 C 182.863281 30.742188 182.867188 30.734375 182.867188 30.722656 L 181.71875 30.722656 C 181.71875 30.722656 181.722656 30.722656 181.722656 30.722656 C 181.738281 30.722656 181.753906 30.71875 181.769531 30.71875 C 181.808594 30.714844 181.847656 30.710938 181.886719 30.707031 C 181.90625 30.703125 181.925781 30.703125 181.945312 30.699219 C 181.980469 30.699219 182.015625 30.695312 182.050781 30.691406 C 182.070312 30.691406 182.09375 30.691406 182.113281 30.6875 C 182.148438 30.6875 182.1875 30.683594 182.222656 30.683594 C 182.242188 30.683594 182.257812 30.679688 182.277344 30.679688 C 182.324219 30.679688 182.375 30.675781 182.421875 30.675781 C 182.429688 30.675781 182.433594 30.675781 182.441406 30.675781 C 182.496094 30.675781 182.550781 30.675781 182.605469 30.675781 C 182.621094 30.675781 182.640625 30.675781 182.65625 30.675781 C 182.695312 30.675781 182.734375 30.675781 182.769531 30.675781 C 182.789062 30.675781 182.8125 30.679688 182.832031 30.679688 C 182.867188 30.679688 182.902344 30.683594 182.9375 30.683594 C 182.957031 30.683594 182.980469 30.683594 183 30.6875 C 183.035156 30.6875 183.074219 30.691406 183.113281 30.695312 C 183.113281 30.695312 183.117188 30.695312 183.121094 30.695312 C 183.246094 30.421875 183.414062 30.171875 183.613281 29.953125 C 183.464844 29.9375 183.320312 29.925781 183.171875 29.917969 Z M 183.171875 29.917969 " fill-opacity="1" fill-rule="evenodd"/></g><g clip-path="url(#9a6591a760)"><g clip-path="url(#dbcf71645d)"><g clip-path="url(#38f3103c90)"><path fill="#ffffff" d="M 188.089844 36.214844 C 188.0625 36.234375 188.039062 36.257812 188.011719 36.277344 L 187.539062 36.699219 C 187.550781 36.734375 187.5625 36.769531 187.574219 36.804688 C 188.199219 38.714844 187.886719 40.878906 186.59375 42.566406 C 186.632812 42.527344 186.667969 42.488281 186.703125 42.449219 C 186.757812 42.394531 186.808594 42.335938 186.859375 42.277344 C 187.328125 41.742188 187.6875 41.148438 187.9375 40.527344 C 188.460938 39.246094 188.535156 37.835938 188.183594 36.527344 C 188.152344 36.421875 188.121094 36.316406 188.089844 36.214844 Z M 188.089844 36.214844 " fill-opacity="1" fill-rule="evenodd"/></g></g></g><g clip-path="url(#4d20e91fd1)"><g clip-path="url(#b551c0cd59)"><g clip-path="url(#d8e46b4604)"><path fill="#ffc72c" d="M 187.914062 32.003906 C 187.890625 32.023438 187.875 32.058594 187.867188 32.105469 C 187.84375 32.21875 187.859375 32.40625 187.90625 32.640625 C 187.910156 32.648438 187.910156 32.65625 187.914062 32.664062 C 187.941406 32.800781 187.980469 32.957031 188.027344 33.121094 C 188.0625 33.246094 188.105469 33.382812 188.152344 33.523438 L 188.007812 33.746094 L 187.738281 34.171875 L 187.542969 34.476562 L 187.199219 35.015625 L 186.996094 35.335938 L 186.921875 35.449219 L 186.839844 35.578125 L 186.816406 35.617188 C 186.785156 35.679688 186.777344 35.753906 186.804688 35.824219 C 186.859375 35.957031 187.003906 36.019531 187.136719 35.96875 C 187.148438 35.964844 187.160156 35.957031 187.171875 35.949219 C 187.199219 35.925781 187.222656 35.902344 187.25 35.875 C 187.257812 35.871094 187.265625 35.863281 187.269531 35.855469 C 187.28125 35.847656 187.289062 35.839844 187.296875 35.832031 L 187.832031 35.359375 C 188.0625 35.164062 188.296875 34.976562 188.53125 34.800781 C 188.542969 34.792969 188.550781 34.789062 188.558594 34.78125 L 189.144531 36.273438 L 189.808594 36.011719 C 189.78125 35.878906 189.753906 35.742188 189.71875 35.605469 C 189.667969 35.394531 189.605469 35.183594 189.539062 34.976562 L 189.339844 34.472656 C 189.34375 34.472656 189.347656 34.472656 189.351562 34.472656 C 189.652344 34.441406 189.957031 34.417969 190.261719 34.402344 L 190.882812 34.386719 L 190.976562 34.382812 C 190.988281 34.382812 191 34.382812 191.015625 34.382812 C 191.023438 34.382812 191.03125 34.382812 191.042969 34.382812 C 191.078125 34.382812 191.113281 34.382812 191.152344 34.382812 C 191.164062 34.378906 191.175781 34.375 191.191406 34.371094 C 191.320312 34.320312 191.382812 34.171875 191.332031 34.042969 C 191.304688 33.972656 191.25 33.921875 191.179688 33.898438 L 191.140625 33.886719 L 190.992188 33.847656 L 190.863281 33.8125 L 190.570312 33.738281 L 190.492188 33.71875 L 189.875 33.558594 L 189.523438 33.46875 L 188.777344 33.277344 C 188.71875 33.140625 188.65625 33.015625 188.597656 32.894531 C 188.519531 32.742188 188.441406 32.605469 188.367188 32.484375 C 188.363281 32.476562 188.359375 32.472656 188.355469 32.464844 C 188.230469 32.257812 188.117188 32.109375 188.023438 32.042969 C 187.984375 32.015625 187.945312 32 187.914062 32.003906 Z M 187.914062 32.003906 " fill-opacity="1" fill-rule="evenodd"/></g></g></g><g clip-path="url(#24cf87a485)"><g clip-path="url(#549974bcf7)"><g clip-path="url(#7e1e6d681d)"><path fill="#ffc72c" d="M 189.222656 34.179688 C 189.269531 34.277344 189.3125 34.375 189.351562 34.472656 C 189.417969 34.640625 189.480469 34.808594 189.539062 34.976562 C 189.605469 35.183594 189.667969 35.394531 189.71875 35.605469 C 189.753906 35.742188 189.78125 35.878906 189.808594 36.011719 C 190.253906 38.355469 189.660156 40.867188 187.976562 42.804688 C 186.738281 44.230469 185.105469 45.117188 183.382812 45.4375 C 183.414062 45.425781 183.449219 45.414062 183.484375 45.40625 L 183.539062 45.386719 C 183.585938 45.375 183.632812 45.359375 183.679688 45.34375 C 183.695312 45.335938 183.710938 45.332031 183.726562 45.328125 C 183.75 45.320312 183.769531 45.3125 183.789062 45.304688 C 183.792969 45.304688 183.796875 45.300781 183.796875 45.300781 C 183.816406 45.296875 183.835938 45.289062 183.851562 45.28125 C 183.859375 45.28125 183.863281 45.277344 183.871094 45.277344 C 183.882812 45.273438 183.890625 45.269531 183.902344 45.265625 C 183.933594 45.253906 183.96875 45.238281 184.003906 45.226562 C 184.019531 45.21875 184.039062 45.210938 184.058594 45.207031 L 184.085938 45.195312 C 188.171875 43.585938 190.175781 38.972656 188.570312 34.890625 C 188.558594 34.859375 188.546875 34.828125 188.535156 34.800781 C 188.542969 34.792969 188.550781 34.789062 188.558594 34.78125 L 188.996094 35.894531 C 188.996094 35.894531 188.996094 35.890625 188.996094 35.890625 C 188.992188 35.875 188.988281 35.859375 188.984375 35.839844 C 188.972656 35.800781 188.960938 35.765625 188.949219 35.726562 C 188.945312 35.707031 188.9375 35.6875 188.933594 35.667969 C 188.921875 35.628906 188.910156 35.59375 188.898438 35.558594 C 188.894531 35.539062 188.886719 35.519531 188.882812 35.5 C 188.867188 35.464844 188.855469 35.425781 188.84375 35.390625 C 188.839844 35.371094 188.832031 35.355469 188.828125 35.335938 C 188.808594 35.289062 188.792969 35.242188 188.773438 35.195312 C 188.773438 35.1875 188.769531 35.183594 188.769531 35.175781 C 188.75 35.125 188.726562 35.070312 188.707031 35.015625 C 188.699219 35 188.695312 34.984375 188.6875 34.96875 C 188.671875 34.929688 188.65625 34.894531 188.640625 34.859375 C 188.632812 34.839844 188.625 34.820312 188.617188 34.800781 C 188.601562 34.765625 188.585938 34.734375 188.570312 34.699219 C 188.5625 34.679688 188.554688 34.660156 188.542969 34.640625 C 188.527344 34.605469 188.511719 34.570312 188.496094 34.535156 C 188.492188 34.53125 188.492188 34.527344 188.492188 34.527344 C 188.707031 34.300781 188.882812 34.042969 189.019531 33.765625 C 189.09375 33.902344 189.160156 34.039062 189.222656 34.179688 Z M 189.222656 34.179688 " fill-opacity="1" fill-rule="evenodd"/></g></g></g><g clip-path="url(#e8e845372b)"><g clip-path="url(#b42978f14e)"><path fill="#ffffff" d="M 176.167969 22.335938 L 187.546875 22.335938 L 187.546875 30.472656 L 176.167969 30.472656 Z M 176.167969 22.335938 " fill-opacity="1" fill-rule="nonzero"/></g></g><g fill="#ffc72c" fill-opacity="1"><g transform="translate(29.330342, 56.047051)"><g><path d="M 10.140625 -22.59375 L 10.171875 -21.96875 C 9.503906 -21.925781 8.992188 -21.832031 8.640625 -21.6875 C 8.296875 -21.539062 8.078125 -21.28125 7.984375 -20.90625 C 7.890625 -20.539062 7.859375 -19.972656 7.890625 -19.203125 L 8.34375 -3.59375 C 8.363281 -2.832031 8.4375 -2.265625 8.5625 -1.890625 C 8.6875 -1.515625 8.921875 -1.265625 9.265625 -1.140625 C 9.609375 -1.023438 10.113281 -0.957031 10.78125 -0.9375 L 10.796875 -0.3125 C 10.234375 -0.34375 9.519531 -0.347656 8.65625 -0.328125 C 7.800781 -0.316406 6.929688 -0.296875 6.046875 -0.265625 C 5.015625 -0.234375 4.0625 -0.203125 3.1875 -0.171875 C 2.320312 -0.140625 1.617188 -0.09375 1.078125 -0.03125 L 1.0625 -0.65625 C 1.726562 -0.71875 2.226562 -0.816406 2.5625 -0.953125 C 2.894531 -1.097656 3.113281 -1.359375 3.21875 -1.734375 C 3.320312 -2.109375 3.363281 -2.675781 3.34375 -3.4375 L 2.890625 -19.046875 C 2.859375 -19.816406 2.78125 -20.382812 2.65625 -20.75 C 2.53125 -21.125 2.289062 -21.375 1.9375 -21.5 C 1.59375 -21.625 1.097656 -21.6875 0.453125 -21.6875 L 0.421875 -22.3125 C 0.960938 -22.3125 1.671875 -22.3125 2.546875 -22.3125 C 3.421875 -22.3125 4.375 -22.328125 5.40625 -22.359375 C 6.289062 -22.390625 7.160156 -22.425781 8.015625 -22.46875 C 8.867188 -22.519531 9.578125 -22.5625 10.140625 -22.59375 Z M 10.140625 -22.59375 "/></g></g></g><g clip-path="url(#afbe7a0f84)"><g clip-path="url(#ee7dba661b)"><g clip-path="url(#fe3bfb15b9)"><path fill="#ffffff" d="M 28.160156 30.773438 L 40.378906 27.953125 L 41.613281 33.296875 L 29.394531 36.121094 Z M 28.160156 30.773438 " fill-opacity="1" fill-rule="nonzero"/></g></g></g><g clip-path="url(#a1f4f7bb3b)"><g clip-path="url(#a144d47446)"><g clip-path="url(#035908f496)"><g clip-path="url(#0367e9b339)"><path fill="#198754" d="M 27.875 35.300781 C 27.960938 35.136719 28.265625 34.546875 28.554688 33.992188 C 28.84375 33.433594 29.238281 32.691406 29.429688 32.335938 C 29.621094 31.980469 29.789062 31.664062 29.800781 31.632812 C 29.820312 31.585938 29.761719 31.558594 29.605469 31.535156 C 29.484375 31.515625 28.628906 31.355469 27.699219 31.175781 C 26.773438 31 25.484375 30.742188 24.832031 30.601562 C 24.179688 30.464844 23.175781 30.234375 22.597656 30.089844 C 22.015625 29.945312 21.269531 29.738281 20.933594 29.625 C 20.558594 29.503906 20.210938 29.355469 20.027344 29.238281 C 19.863281 29.136719 19.605469 28.917969 19.449219 28.753906 C 19.242188 28.535156 19.078125 28.25 18.800781 27.632812 C 18.59375 27.175781 18.105469 26.160156 17.714844 25.371094 C 17.320312 24.578125 16.914062 23.765625 16.808594 23.5625 C 16.699219 23.359375 16.628906 23.183594 16.648438 23.179688 C 16.664062 23.171875 17.183594 23.25 17.796875 23.351562 C 18.414062 23.453125 18.976562 23.5625 19.046875 23.589844 C 19.121094 23.621094 19.261719 23.730469 19.363281 23.832031 C 19.460938 23.9375 19.757812 24.335938 20.023438 24.722656 C 20.285156 25.105469 20.664062 25.597656 20.867188 25.8125 C 21.066406 26.03125 21.367188 26.292969 21.53125 26.398438 C 21.769531 26.550781 21.945312 26.613281 22.429688 26.71875 C 22.757812 26.792969 23.464844 26.929688 24 27.019531 C 24.53125 27.109375 25.929688 27.3125 27.105469 27.472656 C 28.28125 27.632812 30.71875 27.941406 32.527344 28.15625 C 34.332031 28.375 36.925781 28.683594 38.289062 28.84375 C 39.652344 29.003906 41.65625 29.253906 42.742188 29.394531 C 43.828125 29.535156 45.054688 29.710938 45.464844 29.78125 C 46.082031 29.890625 46.308594 29.957031 46.746094 30.152344 C 47.113281 30.320312 47.355469 30.464844 47.535156 30.632812 C 47.675781 30.761719 47.902344 31.023438 48.035156 31.210938 C 48.171875 31.398438 48.335938 31.617188 48.40625 31.699219 C 48.476562 31.777344 48.707031 31.957031 48.921875 32.097656 C 49.136719 32.238281 49.433594 32.484375 49.582031 32.644531 C 49.730469 32.800781 49.894531 33.046875 49.941406 33.191406 C 49.992188 33.332031 50.015625 33.496094 49.992188 33.558594 C 49.964844 33.621094 49.875 33.738281 49.785156 33.820312 C 49.699219 33.902344 49.476562 34.007812 49.292969 34.054688 C 49.109375 34.105469 48.796875 34.148438 48.601562 34.15625 C 48.40625 34.164062 47.839844 34.140625 47.351562 34.101562 C 46.859375 34.066406 45.863281 33.96875 45.140625 33.886719 C 44.414062 33.804688 42.925781 33.617188 41.832031 33.46875 C 40.738281 33.320312 39.074219 33.082031 38.132812 32.941406 C 37.195312 32.796875 36.375 32.675781 36.316406 32.667969 C 36.257812 32.664062 35.703125 32.96875 35.082031 33.34375 C 34.464844 33.71875 33.382812 34.359375 32.679688 34.761719 C 31.976562 35.164062 31.125 35.632812 30.78125 35.800781 C 30.441406 35.972656 30.066406 36.117188 29.949219 36.125 C 29.832031 36.128906 29.398438 36.0625 28.984375 35.96875 C 28.570312 35.878906 28.121094 35.757812 27.976562 35.699219 C 27.722656 35.597656 27.722656 35.597656 27.875 35.300781 Z M 29.621094 25.570312 C 29.503906 24.96875 29.402344 24.40625 29.390625 24.320312 C 29.375 24.183594 29.390625 24.15625 29.492188 24.128906 C 29.5625 24.113281 30.046875 24.125 30.570312 24.15625 C 31.328125 24.199219 31.570312 24.238281 31.738281 24.332031 C 31.855469 24.398438 32.164062 24.648438 32.421875 24.894531 C 32.683594 25.136719 33.300781 25.753906 33.792969 26.261719 C 34.289062 26.769531 34.6875 27.199219 34.679688 27.21875 C 34.671875 27.238281 34.230469 27.199219 33.699219 27.132812 C 33.164062 27.066406 32.078125 26.933594 31.28125 26.835938 C 29.832031 26.660156 29.832031 26.660156 29.621094 25.570312 Z M 29.621094 25.570312 " fill-opacity="1" fill-rule="nonzero"/></g></g></g></g><g clip-path="url(#1246baa810)"><path fill="#198754" d="M 34.09375 6.332031 C 18.65625 6.332031 6.136719 18.851562 6.136719 34.289062 C 6.136719 49.726562 18.65625 62.25 34.09375 62.25 C 37.8125 62.25 41.367188 61.523438 44.609375 60.203125 C 40.902344 61.957031 36.761719 62.933594 32.390625 62.933594 C 16.570312 62.933594 3.746094 50.113281 3.746094 34.289062 C 3.746094 18.46875 16.570312 5.644531 32.390625 5.644531 C 36.761719 5.644531 40.910156 6.625 44.609375 8.375 C 41.367188 7.0625 37.820312 6.332031 34.09375 6.332031 Z M 34.09375 6.332031 " fill-opacity="1" fill-rule="nonzero"/></g><path fill="#808080" d="M 8.453125 34.289062 C 8.453125 47.0625 17.457031 57.726562 29.457031 60.292969 C 17.082031 58.101562 7.683594 47.292969 7.683594 34.289062 C 7.683594 21.289062 17.082031 10.480469 29.457031 8.289062 C 17.449219 10.855469 8.453125 21.515625 8.453125 34.289062 Z M 8.453125 34.289062 " fill-opacity="1" fill-rule="nonzero"/><g clip-path="url(#26217377dd)"><path fill="#b3b3b3" d="M 45.636719 2.816406 C 46.746094 2.5 47 2.238281 47.316406 1.136719 C 47.632812 2.246094 47.894531 2.5 48.996094 2.816406 C 47.886719 3.136719 47.632812 3.394531 47.316406 4.496094 C 47 3.394531 46.746094 3.144531 45.636719 2.816406 Z M 42.621094 5.867188 C 42.816406 5.179688 42.980469 5.019531 43.664062 4.824219 C 42.980469 4.628906 42.816406 4.464844 42.621094 3.78125 C 42.425781 4.464844 42.261719 4.628906 41.578125 4.824219 C 42.261719 5.027344 42.425781 5.179688 42.621094 5.867188 Z M 42.621094 5.867188 " fill-opacity="1" fill-rule="nonzero"/></g><g clip-path="url(#466e0379fc)"><path fill="#198754" d="M 52.402344 13.167969 C 52.402344 13.167969 52.363281 13.375 51.757812 13.25 C 51.246094 13.152344 50.992188 12.964844 50.917969 12.917969 L 50.277344 12.527344 L 46.484375 13.820312 C 46.371094 13.894531 46.222656 13.902344 46.09375 13.847656 L 45.792969 13.707031 L 48.703125 11.554688 C 48.703125 11.554688 47.757812 10.945312 46.972656 10.300781 C 46.640625 10.429688 45.5625 10.855469 45.253906 10.976562 C 45.199219 11 45.140625 10.992188 45.082031 10.976562 L 44.894531 10.894531 L 46.234375 9.640625 C 46.0625 9.46875 45.90625 9.296875 45.777344 9.136719 L 45.847656 9.011719 C 46.0625 9.0625 46.28125 9.125 46.5 9.199219 L 47.039062 7.449219 L 47.195312 7.578125 C 47.242188 7.617188 47.269531 7.667969 47.277344 7.726562 C 47.300781 8.058594 47.398438 9.214844 47.429688 9.566406 C 48.359375 9.984375 49.320312 10.570312 49.320312 10.570312 L 50.195312 7.210938 L 50.453125 7.421875 C 50.5625 7.511719 50.617188 7.644531 50.609375 7.78125 L 50.902344 11.554688 L 51.546875 11.945312 C 51.621094 11.996094 51.898438 12.132812 52.214844 12.550781 C 52.566406 13.046875 52.402344 13.167969 52.402344 13.167969 Z M 52.402344 13.167969 " fill-opacity="1" fill-rule="nonzero"/></g><g clip-path="url(#c9285f28bb)"><path fill="#ffc72c" d="M 32.363281 68.667969 C 47.800781 68.667969 60.320312 56.144531 60.320312 40.707031 C 60.320312 25.269531 47.800781 12.75 32.363281 12.75 C 28.644531 12.75 25.09375 13.472656 21.847656 14.792969 C 25.554688 13.042969 29.699219 12.0625 34.066406 12.0625 C 49.886719 12.0625 62.710938 24.886719 62.710938 40.707031 C 62.710938 56.527344 49.886719 69.351562 34.066406 69.351562 C 29.699219 69.351562 25.546875 68.371094 21.847656 66.621094 C 25.09375 67.933594 28.636719 68.667969 32.363281 68.667969 Z M 32.363281 68.667969 " fill-opacity="1" fill-rule="nonzero"/></g><path fill="#808080" d="M 58.007812 40.707031 C 58.007812 27.933594 49 17.273438 37 14.703125 C 49.375 16.898438 58.773438 27.707031 58.773438 40.707031 C 58.773438 53.707031 49.375 64.515625 37 66.710938 C 49.007812 64.140625 58.007812 53.480469 58.007812 40.707031 Z M 58.007812 40.707031 " fill-opacity="1" fill-rule="nonzero"/><g clip-path="url(#5f21d31004)"><path fill="#b3b3b3" d="M 20.820312 72.179688 C 19.710938 72.496094 19.460938 72.757812 19.140625 73.859375 C 18.824219 72.75 18.5625 72.496094 17.460938 72.179688 C 18.570312 71.863281 18.824219 71.601562 19.140625 70.5 C 19.460938 71.601562 19.710938 71.851562 20.820312 72.179688 Z M 23.835938 69.128906 C 23.640625 69.816406 23.476562 69.976562 22.792969 70.175781 C 23.476562 70.371094 23.640625 70.53125 23.835938 71.21875 C 24.03125 70.53125 24.195312 70.371094 24.878906 70.175781 C 24.195312 69.96875 24.03125 69.816406 23.835938 69.128906 Z M 23.835938 69.128906 " fill-opacity="1" fill-rule="nonzero"/></g><path fill="#ffc72c" d="M 14.054688 61.828125 C 14.054688 61.828125 14.097656 61.625 14.699219 61.746094 C 15.210938 61.84375 15.464844 62.03125 15.539062 62.078125 L 16.183594 62.472656 L 19.972656 61.175781 C 20.085938 61.101562 20.234375 61.09375 20.363281 61.152344 L 20.664062 61.289062 L 17.753906 63.441406 C 17.753906 63.441406 18.703125 64.050781 19.484375 64.695312 C 19.816406 64.566406 20.894531 64.140625 21.203125 64.019531 C 21.261719 63.996094 21.316406 64.003906 21.375 64.019531 L 21.5625 64.101562 L 20.226562 65.355469 C 20.398438 65.527344 20.550781 65.699219 20.683594 65.863281 L 20.609375 65.984375 C 20.398438 65.933594 20.175781 65.871094 19.957031 65.796875 L 19.417969 67.550781 L 19.265625 67.417969 C 19.214844 67.378906 19.191406 67.328125 19.183594 67.273438 C 19.15625 66.9375 19.058594 65.78125 19.027344 65.429688 C 18.097656 65.015625 17.136719 64.425781 17.136719 64.425781 L 16.265625 67.785156 L 16.003906 67.574219 C 15.898438 67.484375 15.839844 67.355469 15.847656 67.214844 L 15.554688 63.441406 L 14.910156 63.050781 C 14.835938 63 14.558594 62.863281 14.242188 62.445312 C 13.890625 61.949219 14.054688 61.828125 14.054688 61.828125 Z M 14.054688 61.828125 " fill-opacity="1" fill-rule="nonzero"/></svg>